<svg id="visual" viewBox="0 0 300 50" width="300" height="50" xmlns="http://www.w3.org/2000/svg" xmlns:xlink="http://www.w3.org/1999/xlink" version="1.1"><rect x="0" y="0" width="300" height="50" fill="#263A29"></rect><g fill="#fefefe"><circle r="5" cx="58" cy="42"></circle><circle r="4" cx="59" cy="27"></circle><circle r="3" cx="161" cy="37"></circle><circle r="3" cx="279" cy="35"></circle><circle r="3" cx="126" cy="6"></circle><circle r="3" cx="110" cy="42"></circle><circle r="3" cx="24" cy="40"></circle><circle r="3" cx="78" cy="22"></circle><circle r="3" cx="245" cy="34"></circle><circle r="3" cx="185" cy="24"></circle><circle r="3" cx="144" cy="32"></circle><circle r="3" cx="155" cy="20"></circle><circle r="3" cx="142" cy="44"></circle><circle r="3" cx="292" cy="11"></circle><circle r="3" cx="285" cy="43"></circle><circle r="3" cx="228" cy="40"></circle><circle r="3" cx="174" cy="18"></circle><circle r="3" cx="40" cy="6"></circle><circle r="3" cx="177" cy="9"></circle><circle r="3" cx="121" cy="43"></circle><circle r="3" cx="219" cy="31"></circle><circle r="3" cx="146" cy="22"></circle><circle r="3" cx="224" cy="14"></circle><circle r="3" cx="156" cy="7"></circle><circle r="3" cx="237" cy="29"></circle><circle r="3" cx="66" cy="34"></circle><circle r="3" cx="203" cy="17"></circle><circle r="3" cx="38" cy="39"></circle><circle r="3" cx="90" cy="24"></circle><circle r="3" cx="55" cy="17"></circle><circle r="3" cx="23" cy="28"></circle><circle r="3" cx="166" cy="28"></circle><circle r="3" cx="15" cy="33"></circle><circle r="3" cx="118" cy="21"></circle><circle r="3" cx="266" cy="44"></circle><circle r="3" cx="27" cy="7"></circle><circle r="3" cx="109" cy="17"></circle><circle r="3" cx="268" cy="10"></circle><circle r="3" cx="5" cy="32"></circle><circle r="3" cx="142" cy="5"></circle><circle r="3" cx="186" cy="36"></circle><circle r="3" cx="83" cy="13"></circle><circle r="3" cx="107" cy="27"></circle><circle r="3" cx="11" cy="7"></circle><circle r="3" cx="241" cy="44"></circle><circle r="3" cx="134" cy="16"></circle><circle r="3" cx="192" cy="17"></circle><circle r="3" cx="82" cy="43"></circle><circle r="3" cx="256" cy="38"></circle><circle r="3" cx="45" cy="18"></circle><circle r="3" cx="109" cy="7"></circle><circle r="3" cx="34" cy="20"></circle><circle r="3" cx="133" cy="24"></circle><circle r="3" cx="152" cy="39"></circle><circle r="3" cx="275" cy="44"></circle><circle r="3" cx="98" cy="29"></circle><circle r="3" cx="5" cy="19"></circle><circle r="3" cx="66" cy="17"></circle><circle r="3" cx="99" cy="17"></circle><circle r="3" cx="230" cy="5"></circle><circle r="3" cx="286" cy="21"></circle><circle r="3" cx="276" cy="18"></circle><circle r="3" cx="208" cy="40"></circle><circle r="3" cx="196" cy="36"></circle><circle r="3" cx="166" cy="11"></circle><circle r="3" cx="295" cy="43"></circle><circle r="3" cx="116" cy="30"></circle><circle r="3" cx="40" cy="29"></circle><circle r="3" cx="78" cy="33"></circle><circle r="3" cx="176" cy="39"></circle><circle r="3" cx="13" cy="16"></circle><circle r="3" cx="49" cy="32"></circle><circle r="3" cx="69" cy="44"></circle><circle r="3" cx="47" cy="42"></circle><circle r="3" cx="264" cy="29"></circle><circle r="3" cx="259" cy="9"></circle><circle r="3" cx="229" cy="22"></circle><circle r="3" cx="252" cy="21"></circle><circle r="3" cx="261" cy="19"></circle><circle r="3" cx="13" cy="42"></circle><circle r="3" cx="236" cy="15"></circle><circle r="3" cx="74" cy="10"></circle><circle r="3" cx="195" cy="7"></circle><circle r="3" cx="22" cy="15"></circle><circle r="3" cx="101" cy="41"></circle><circle r="3" cx="87" cy="5"></circle><circle r="3" cx="249" cy="8"></circle><circle r="3" cx="191" cy="44"></circle><circle r="3" cx="53" cy="6"></circle><circle r="3" cx="219" cy="45"></circle><circle r="3" cx="135" cy="35"></circle><circle r="3" cx="295" cy="25"></circle><circle r="3" cx="282" cy="11"></circle><circle r="3" cx="208" cy="25"></circle><circle r="3" cx="210" cy="10"></circle><circle r="3" cx="154" cy="30"></circle><circle r="3" cx="290" cy="33"></circle><circle r="3" cx="198" cy="26"></circle><circle r="3" cx="131" cy="45"></circle><circle r="3" cx="177" cy="30"></circle><circle r="3" cx="216" cy="19"></circle><circle r="3" cx="243" cy="22"></circle><circle r="3" cx="87" cy="34"></circle><circle r="3" cx="97" cy="7"></circle><circle r="3" cx="169" cy="45"></circle><circle r="3" cx="119" cy="10"></circle><circle r="3" cx="91" cy="43"></circle><circle r="3" cx="148" cy="12"></circle><circle r="3" cx="219" cy="5"></circle><circle r="3" cx="31" cy="32"></circle><circle r="3" cx="240" cy="6"></circle><circle r="3" cx="64" cy="5"></circle><circle r="3" cx="5" cy="45"></circle><circle r="3" cx="274" cy="27"></circle><circle r="3" cx="126" cy="31"></circle></g></svg>