<svg id="visual" viewBox="0 0 1920 1080" width="1920" height="1080" xmlns="http://www.w3.org/2000/svg" xmlns:xlink="http://www.w3.org/1999/xlink" version="1.1"><rect x="0" y="0" width="1920" height="1080" fill="#ffffff"></rect><defs><linearGradient id="grad1_0" x1="43.8%" y1="0%" x2="100%" y2="100%"><stop offset="14.444444444444446%" stop-color="#396126" stop-opacity="1"></stop><stop offset="85.55555555555554%" stop-color="#396126" stop-opacity="1"></stop></linearGradient></defs><defs><linearGradient id="grad1_1" x1="43.8%" y1="0%" x2="100%" y2="100%"><stop offset="14.444444444444446%" stop-color="#396126" stop-opacity="1"></stop><stop offset="85.55555555555554%" stop-color="#5f7f4e" stop-opacity="1"></stop></linearGradient></defs><defs><linearGradient id="grad1_2" x1="43.8%" y1="0%" x2="100%" y2="100%"><stop offset="14.444444444444446%" stop-color="#869e77" stop-opacity="1"></stop><stop offset="85.55555555555554%" stop-color="#5f7f4e" stop-opacity="1"></stop></linearGradient></defs><defs><linearGradient id="grad1_3" x1="43.8%" y1="0%" x2="100%" y2="100%"><stop offset="14.444444444444446%" stop-color="#869e77" stop-opacity="1"></stop><stop offset="85.55555555555554%" stop-color="#adbda3" stop-opacity="1"></stop></linearGradient></defs><defs><linearGradient id="grad1_4" x1="43.8%" y1="0%" x2="100%" y2="100%"><stop offset="14.444444444444446%" stop-color="#d5ded0" stop-opacity="1"></stop><stop offset="85.55555555555554%" stop-color="#adbda3" stop-opacity="1"></stop></linearGradient></defs><defs><linearGradient id="grad1_5" x1="43.8%" y1="0%" x2="100%" y2="100%"><stop offset="14.444444444444446%" stop-color="#d5ded0" stop-opacity="1"></stop><stop offset="85.55555555555554%" stop-color="#ffffff" stop-opacity="1"></stop></linearGradient></defs><defs><linearGradient id="grad2_0" x1="0%" y1="0%" x2="56.3%" y2="100%"><stop offset="14.444444444444446%" stop-color="#396126" stop-opacity="1"></stop><stop offset="85.55555555555554%" stop-color="#396126" stop-opacity="1"></stop></linearGradient></defs><defs><linearGradient id="grad2_1" x1="0%" y1="0%" x2="56.3%" y2="100%"><stop offset="14.444444444444446%" stop-color="#5f7f4e" stop-opacity="1"></stop><stop offset="85.55555555555554%" stop-color="#396126" stop-opacity="1"></stop></linearGradient></defs><defs><linearGradient id="grad2_2" x1="0%" y1="0%" x2="56.3%" y2="100%"><stop offset="14.444444444444446%" stop-color="#5f7f4e" stop-opacity="1"></stop><stop offset="85.55555555555554%" stop-color="#869e77" stop-opacity="1"></stop></linearGradient></defs><defs><linearGradient id="grad2_3" x1="0%" y1="0%" x2="56.3%" y2="100%"><stop offset="14.444444444444446%" stop-color="#adbda3" stop-opacity="1"></stop><stop offset="85.55555555555554%" stop-color="#869e77" stop-opacity="1"></stop></linearGradient></defs><defs><linearGradient id="grad2_4" x1="0%" y1="0%" x2="56.3%" y2="100%"><stop offset="14.444444444444446%" stop-color="#adbda3" stop-opacity="1"></stop><stop offset="85.55555555555554%" stop-color="#d5ded0" stop-opacity="1"></stop></linearGradient></defs><defs><linearGradient id="grad2_5" x1="0%" y1="0%" x2="56.3%" y2="100%"><stop offset="14.444444444444446%" stop-color="#ffffff" stop-opacity="1"></stop><stop offset="85.55555555555554%" stop-color="#d5ded0" stop-opacity="1"></stop></linearGradient></defs><g transform="translate(1920, 0)"><path d="M0 702C-80.2 704.1 -160.5 706.1 -216.9 667.6C-273.4 629.2 -306.1 550.2 -367.4 505.6C-428.6 461.1 -518.5 450.9 -551.7 400.9C-585 350.9 -561.7 261 -577.3 187.6C-592.9 114.1 -647.5 57.1 -702 0L0 0Z" fill="#eaeee7"></path><path d="M0 585C-66.9 586.7 -133.7 588.4 -180.8 556.4C-227.8 524.3 -255.1 458.5 -306.1 421.4C-357.2 384.2 -432.1 375.7 -459.8 334.1C-487.5 292.4 -468.1 217.5 -481.1 156.3C-494.1 95.1 -539.5 47.6 -585 0L0 0Z" fill="#c1cdb9"></path><path d="M0 468C-53.5 469.4 -107 470.7 -144.6 445.1C-182.3 419.5 -204.1 366.8 -244.9 337.1C-285.8 307.4 -345.7 300.6 -367.8 267.2C-390 233.9 -374.5 174 -384.9 125C-395.3 76.1 -431.6 38 -468 0L0 0Z" fill="#99ad8d"></path><path d="M0 351C-40.1 352 -80.2 353.1 -108.5 333.8C-136.7 314.6 -153 275.1 -183.7 252.8C-214.3 230.5 -259.2 225.4 -275.9 200.4C-292.5 175.4 -280.8 130.5 -288.6 93.8C-296.5 57.1 -323.7 28.5 -351 0L0 0Z" fill="#728e62"></path><path d="M0 234C-26.7 234.7 -53.5 235.4 -72.3 222.5C-91.1 209.7 -102 183.4 -122.5 168.5C-142.9 153.7 -172.8 150.3 -183.9 133.6C-195 117 -187.2 87 -192.4 62.5C-197.6 38 -215.8 19 -234 0L0 0Z" fill="#4c703a"></path><path d="M0 117C-13.4 117.3 -26.7 117.7 -36.2 111.3C-45.6 104.9 -51 91.7 -61.2 84.3C-71.4 76.8 -86.4 75.1 -92 66.8C-97.5 58.5 -93.6 43.5 -96.2 31.3C-98.8 19 -107.9 9.5 -117 0L0 0Z" fill="#396126"></path></g><g transform="translate(0, 1080)"><path d="M0 -702C83.6 -708 167.3 -713.9 216.3 -665.7C265.3 -617.6 279.8 -515.3 344.4 -474.1C409.1 -432.9 524 -452.8 567.9 -412.6C611.9 -372.5 584.8 -272.2 595.4 -193.4C605.9 -114.7 653.9 -57.3 702 0L0 0Z" fill="#eaeee7"></path><path d="M0 -585C69.7 -590 139.4 -594.9 180.3 -554.8C221.1 -514.6 233.2 -429.4 287 -395.1C340.9 -360.7 436.7 -377.3 473.3 -343.9C509.9 -310.4 487.4 -226.9 496.1 -161.2C504.9 -95.6 545 -47.8 585 0L0 0Z" fill="#c1cdb9"></path><path d="M0 -468C55.8 -472 111.5 -475.9 144.2 -443.8C176.9 -411.7 186.5 -343.5 229.6 -316.1C272.7 -288.6 349.3 -301.9 378.6 -275.1C407.9 -248.3 389.9 -181.5 396.9 -129C403.9 -76.4 436 -38.2 468 0L0 0Z" fill="#99ad8d"></path><path d="M0 -351C41.8 -354 83.6 -357 108.2 -332.9C132.7 -308.8 139.9 -257.6 172.2 -237C204.6 -216.4 262 -226.4 284 -206.3C305.9 -186.2 292.4 -136.1 297.7 -96.7C302.9 -57.3 327 -28.7 351 0L0 0Z" fill="#728e62"></path><path d="M0 -234C27.9 -236 55.8 -238 72.1 -221.9C88.4 -205.9 93.3 -171.8 114.8 -158C136.4 -144.3 174.7 -150.9 189.3 -137.5C204 -124.2 194.9 -90.7 198.5 -64.5C202 -38.2 218 -19.1 234 0L0 0Z" fill="#4c703a"></path><path d="M0 -117C13.9 -118 27.9 -119 36.1 -111C44.2 -102.9 46.6 -85.9 57.4 -79C68.2 -72.1 87.3 -75.5 94.7 -68.8C102 -62.1 97.5 -45.4 99.2 -32.2C101 -19.1 109 -9.6 117 0L0 0Z" fill="#396126"></path></g></svg>